<svg id="logosandtypes_com" xmlns="http://www.w3.org/2000/svg" viewBox="0 0 150 150"><path d="M0 0h150v150H0V0z" fill="none"/><path d="M75.5 10c-35.2-.6-64.3 27.5-64.9 62.7v.3c-.5 35.9 28.3 64.6 63.3 64.7 35.8.2 64.4-28.3 64.4-63.8 0-35-28.1-63.3-62.8-63.9zm7.8 123.4c0 1.4-1.1 2.6-2.5 2.6-.3 0-.5 0-.7-.1-1.1-.2-2.1-1-2.6-2-5.4-9-48.4-80.5-54.5-90.8-1.4-2.1-.8-4.9 1.3-6.3.1-.1.2-.2.4-.2 2.6-1.6 5.4-1.1 6.9 1.4 6.2 10.4 28.7 48 33.6 56.2 1.2 2.1.8 4.4-.8 6.2.6 1.1 12.8 21.3 18.2 30.3.5.8.7 1.7.7 2.7zm9.6-15.7c-.1 1-.7 1.8-1.6 2.1-1.1.4-2.4.1-3.2-.7-.5-.4-.8-.9-1.1-1.4-5-8.4-44.3-73.7-45.4-75.5-1.6-2.7-.9-5.2 1.9-6.9 2.5-1.5 5.2-.8 6.7 1.8l24.6 41c1.4 2.3 1.1 4.4-.7 6.4.3.5 12.4 20.7 18.2 30.2.5 1 .8 2 .6 3zm9-16.8c-.3 1.4-1.6 2.3-3 2.1-.1 0-.2 0-.3-.1-1.1-.3-2-1-2.5-1.9-3.1-5.1-34-56.5-35.4-58.9-1.5-2.5-.8-5.2 1.6-6.7 2.7-1.6 5.4-1 6.9 1.5 4.4 7.2 8.7 14.5 13.1 21.7.7 1.2 1.5 2.3 1.5 3.7 0 1.4-.6 2.7-1.6 3.7.3.5 13 21.6 19 31.7.6 1 .9 2.1.7 3.2zm8.9-16.5c-.5 1.4-1.9 2-3.4 1.5-.9-.3-1.7-.9-2.2-1.8-8.5-14-16.9-27.9-25.2-42-1.5-2.5-.8-5.1 1.7-6.7 2.6-1.6 5.3-1 6.9 1.5.8 1.3 1.6 2.7 2.4 4 1.2 2 .8 4.5-.9 6l20.4 34c.5 1.1.7 2.3.3 3.5zm9.5-16.2c-1.7.8-3.2.4-4.6-.6-1-.7-1.9-1.7-2.5-2.8l-13-22c-.8-1.2-1.2-2.6-1.2-4.1 0-1.7.6-3 2.1-3.8 1.5-.8 3-.4 4.3.5 1 .7 1.9 1.7 2.5 2.8 4.4 7.5 8.9 15 13.3 22.6.7 1.2 1.1 2.5 1.1 3.8 0 1.6-.5 2.9-2 3.6zm8.5-16.8c-1.5.9-2.9.6-4.3-.2-1.3-.8-2.3-1.8-3-3.2-.8-1.4-1.6-2.8-2.3-4.2-.9-1.6-1.3-3.4-.7-5.2.6-1.9 2.6-3 4.5-2.4l.3.1c1.5.6 2.7 1.6 3.5 3 1.1 1.8 2.1 3.7 3.1 5.6.4.9.7 1.9.7 2.9 0 1.6-.5 2.8-1.8 3.6z" fill="#bb0505"/></svg>